<?xml version="1.0" encoding="utf-8"?>
<!-- Generator: Adobe Illustrator 16.0.4, SVG Export Plug-In . SVG Version: 6.00 Build 0)  -->
<!DOCTYPE svg PUBLIC "-//W3C//DTD SVG 1.1//EN" "http://www.w3.org/Graphics/SVG/1.1/DTD/svg11.dtd">
<svg version="1.1" id="Ebene_1" xmlns="http://www.w3.org/2000/svg" xmlns:xlink="http://www.w3.org/1999/xlink" x="0px" y="0px"
	 width="87.333px" height="88.186px" viewBox="0 0 87.333 88.186" enable-background="new 0 0 87.333 88.186" xml:space="preserve">
<path fill="#A5CFD1" stroke="#FFFFFF" stroke-miterlimit="10" d="M43.667,16.766L3.489,31.702l33.023,27.327l33.024,27.327
	l7.153-42.263L83.844,1.83L43.667,16.766z M54.833,58.5h-5v-25h5V58.5z M54.938,28.569c-0.622,0.655-1.391,0.981-2.307,0.981
	c-0.949,0-1.726-0.327-2.33-0.981c-0.606-0.654-0.908-1.472-0.908-2.454c0-0.948,0.302-1.766,0.908-2.453
	c0.604-0.687,1.381-1.031,2.33-1.031c0.948,0,1.726,0.344,2.331,1.031c0.604,0.687,0.907,1.505,0.907,2.453
	C55.87,27.097,55.559,27.915,54.938,28.569z"/>
</svg>
